<svg width="503" height="631" viewBox="0 0 503 631" fill="none" xmlns="http://www.w3.org/2000/svg">
<path d="M106.004 631C160.218 631 204.167 621.083 204.167 608.85C204.167 596.617 160.218 586.7 106.004 586.7C51.7893 586.7 7.84009 596.617 7.84009 608.85C7.84008 621.083 51.7893 631 106.004 631Z" fill="#349E5F"/>
<path d="M204.313 297.66C249.711 297.66 286.513 289.138 286.513 278.626C286.513 268.114 249.711 259.592 204.313 259.592C158.916 259.592 122.114 268.114 122.114 278.626C122.114 289.138 158.916 297.66 204.313 297.66Z" fill="#349E5F"/>
<path d="M379.633 528.18C447.73 528.18 502.933 515.519 502.933 499.901C502.933 484.283 447.73 471.623 379.633 471.623C311.537 471.623 256.334 484.283 256.334 499.901C256.334 515.519 311.537 528.18 379.633 528.18Z" fill="#349E5F"/>
<g clip-path="url(#clip0)">
<path d="M168.386 278.969L168.184 278.337L168.035 277.876L162.342 260.144L165.796 240.112L172.703 223.88L182.719 218.182L208.621 221.117L226.061 219.045L235.213 220.772L241.947 230.269L246.092 242.184L249.2 253.236L248.682 264.114L246.783 273.439L245.056 279.656L167.868 280L168.386 278.969Z" fill="#F26C6C"/>
<path d="M175.299 219.251C170.156 217.473 165.452 215.271 161.042 212.468C148.887 204.743 140.673 193.83 135.333 180.607C133.832 176.891 132.599 173.087 131.656 169.189C131.509 168.584 131.454 168.02 130.512 167.967C124.165 167.604 119.817 164.128 118.242 157.994C116.886 152.711 116.934 147.417 118.765 142.206C119.086 141.292 120.238 140.418 119.863 139.652C119.553 139.016 118.218 138.903 117.358 138.51C110.561 135.406 107.197 129.806 105.787 122.723C104.059 114.049 105.346 105.67 108 97.3827C112.096 84.5882 118.974 73.4589 128.252 63.8247C142.439 49.0945 159.5 38.8832 178.842 32.5087C190.665 28.6126 202.881 27.7376 215.255 28.8317C220.632 29.3073 225.941 30.1812 231.183 31.4652C231.298 31.4934 231.426 31.4685 231.671 31.4685C231.189 28.9441 231.049 26.4314 231.387 23.9026C232.219 17.6796 234.004 11.803 238.418 7.14738C244.221 1.02572 251.588 -0.711266 259.715 0.315227C272.68 1.95249 282.412 13.3377 284.745 25.6587C285.669 30.5418 285.541 35.3585 283.71 40.0387C281.768 45.0041 278.314 48.5801 273.553 50.9258C273.167 51.1159 272.778 51.2996 272.393 51.4894C272.361 51.5047 272.343 51.5456 272.242 51.6653C275.822 54.3866 279.02 57.5279 282.043 60.8364C291.369 71.0423 298.503 82.5067 301.68 96.1185C304.276 107.244 303.965 118.188 298.969 128.704C296.999 132.85 294.578 136.637 290.344 138.864C289.855 139.122 289.911 139.306 290.163 139.733C294.056 146.332 293.864 153.27 291.306 160.142C289.412 165.232 285.28 167.757 279.87 167.948C278.663 167.991 278.502 168.574 278.284 169.435C275.693 179.69 271.529 189.212 265.07 197.657C257.954 206.962 248.868 213.648 238.016 217.982C237.697 218.109 237.375 218.229 237.058 218.361C236.94 218.411 236.833 218.486 236.643 218.594C237.55 219.566 238.487 220.486 239.331 221.485C245.457 228.744 248.953 237.233 250.797 246.448C252.398 254.45 252.532 262.454 250.311 270.39C249.602 272.929 248.628 275.363 247.278 277.635C246.573 278.816 244.743 279.295 243.555 278.656C242.399 278.031 241.874 276.418 242.583 275.156C245.957 269.165 246.927 262.653 246.606 255.929C246.131 245.973 243.379 236.688 237.848 228.317C236.275 225.935 234.443 223.757 232.25 221.905C231.738 221.472 228.304 221.078 227.776 221.384C227.442 221.577 227.534 221.913 227.521 222.194C227.412 224.555 226.641 226.664 225.089 228.454C224.773 228.818 224.711 229.195 224.664 229.627C223.635 238.972 215.285 246.022 205.948 245.435C198.568 244.971 191.622 238.45 190.747 231.14C190.692 230.685 190.571 230.329 190.235 230.011C188.214 228.095 187.216 225.64 186.656 222.987C186.53 222.388 186.346 222.102 185.734 222.002C184.758 221.843 183.801 221.566 182.827 221.391C181.67 221.182 180.704 221.443 179.789 222.315C174.063 227.765 170.603 234.529 168.363 241.975C165.762 250.617 164.924 259.369 167.175 268.243C167.749 270.504 168.599 272.662 169.731 274.708C170.622 276.322 170.3 277.956 168.99 278.658C167.631 279.386 165.904 278.798 165.075 277.293C162.209 272.089 160.917 266.461 160.683 260.576C160.198 248.317 163.138 236.927 169.546 226.454C171.125 223.874 173.014 221.52 175.299 219.251Z" fill="#6E4100"/>
<path d="M136.662 167.219C134.32 157.827 133.215 148.269 133.812 138.629C134.894 121.129 139.242 104.514 148.961 89.7008C160.047 72.8047 175.789 62.719 195.727 59.7863C216.805 56.6859 235.162 63.1383 250.766 77.3979C260.548 86.3369 266.651 97.6633 270.766 110.128C273.421 118.173 275.191 126.426 276 134.852C276.769 142.87 276.255 150.869 275.037 158.825C274.646 161.38 274.17 163.919 273.546 166.429C272.607 166.331 272.531 165.464 272.228 164.861C270.685 161.799 268.51 159.323 265.636 157.445C264.17 156.487 262.505 156.056 260.876 155.519C258.744 153.436 256.471 151.55 253.694 150.359C253.1 150.104 252.52 149.817 251.872 149.726C250.974 149.6 250.234 149.832 249.863 150.735C249.485 151.654 249.92 152.319 250.623 152.853C251.248 153.328 252.044 153.462 252.719 153.841C253.199 154.111 253.749 154.305 253.997 154.869C253.757 155.584 253.077 155.571 252.522 155.74C246.143 157.678 241.774 161.717 239.545 168.044C237.623 173.498 239.902 178.521 243.641 181.602C246.641 184.073 250.21 185.159 253.958 185.756C256.794 186.207 259.618 186.228 262.408 185.355C263.826 184.911 265.131 184.284 266.349 183.448C266.76 183.166 267.146 182.738 267.739 183.02C264.961 189.067 261.258 194.492 256.654 199.287C247.428 208.894 235.989 214.32 223.053 216.774C208.556 219.523 194.125 219.221 179.911 215.099C162.787 210.133 150.29 199.558 142.464 183.508C142.39 183.356 142.344 183.19 142.285 183.031C142.66 182.232 143.163 182.855 143.509 182.996C146.08 184.047 148.719 184.773 151.491 185.07C155.878 185.541 159.794 184.53 163.088 181.518C164.935 179.829 166.733 178.081 167.783 175.735C169.35 172.236 168.667 168.874 167.014 165.654C164.426 160.612 160.445 157.417 154.665 156.757C153.932 156.673 153.201 156.711 152.47 156.676C151.967 156.653 151.413 156.766 151.054 156.253C151.068 155.583 151.599 155.316 152.058 155.021C153.178 154.297 154.354 153.678 155.586 153.156C156.766 152.658 157.253 151.673 156.867 150.715C156.503 149.813 155.506 149.373 154.344 149.835C149.948 151.581 146.207 154.104 144.326 158.707C143.439 159.996 142.034 160.729 140.966 161.838C139.615 163.241 138.522 164.793 137.59 166.484C137.395 166.84 137.374 167.488 136.662 167.219Z" fill="#FEF2DF"/>
<path d="M271.871 98.2994C267.912 89.6417 262.772 81.7862 256.038 75.0167C245.943 64.8678 233.846 58.2571 219.878 55.3838C195.077 50.2821 173.526 57.0718 155.033 74.0311C148.65 79.885 143.812 86.9616 139.896 94.6701C139.207 94.9425 139.098 94.3333 138.951 93.9629C137.697 90.7946 136.68 87.5473 136.278 84.1565C135.579 78.2505 136.049 72.3954 137.319 66.6017C137.817 64.329 138.441 62.0903 139.961 60.2332C142.403 57.8401 145.173 55.8531 147.971 53.9198C158.985 46.3103 170.74 40.1959 183.699 36.616C190.415 34.7612 197.284 33.8831 204.256 33.793C227.22 33.4959 247.917 40.2203 266.379 53.8437C269.222 55.9412 271.955 58.1864 274.4 60.7556C275.919 62.6379 276.43 64.9245 276.894 67.2023C278.132 73.28 278.67 79.4143 277.551 85.5583C276.81 89.6308 275.758 93.6516 273.472 97.2009C273.121 97.7464 272.889 98.6486 271.871 98.2994Z" fill="#FEFEFE"/>
<path d="M267.739 183.02C266.461 183.544 265.479 184.56 264.192 185.093C259.676 186.964 255.131 186.619 250.563 185.378C247.492 184.544 244.658 183.254 242.398 180.932C238.501 176.928 237.415 172.139 239.617 166.853C242.135 160.811 246.588 156.982 252.904 155.309C253.282 155.209 253.659 155.138 253.91 154.799C255.471 155.112 256.417 156.306 257.452 157.34C258.12 158.008 258.518 158.886 258.972 159.715C259.571 160.808 260.496 161.164 261.414 160.732C262.278 160.324 262.569 159.455 262.22 158.302C262.033 157.682 261.722 157.121 261.388 156.568C261.155 156.182 260.745 155.845 260.922 155.302C266.069 156.304 269.503 159.528 272.076 163.881C272.575 164.725 272.772 165.744 273.546 166.428C272.193 172.163 270.399 177.743 267.739 183.02Z" fill="#FFD7BA"/>
<path d="M151.099 156.079C151.567 156.555 152.164 156.335 152.696 156.329C161.603 156.219 167.307 162.526 168.897 170.165C169.562 173.36 168.383 176.318 166.269 178.768C164.359 180.982 162.319 183.112 159.551 184.297C155.625 185.978 151.616 185.792 147.578 184.739C145.992 184.326 144.455 183.788 142.973 183.089C142.763 182.989 142.538 182.755 142.285 183.031C139.866 178.318 138.236 173.317 136.884 168.215C136.797 167.886 136.735 167.551 136.662 167.219C137.416 166.774 137.511 165.898 137.902 165.23C139.472 162.553 141.778 160.602 144.111 158.664C144.419 158.903 144.394 159.273 144.478 159.6C144.674 160.359 145.204 160.757 145.939 160.874C146.714 160.997 147.281 160.644 147.629 159.962C148.238 158.768 148.889 157.605 149.912 156.705C150.254 156.406 150.525 155.948 151.099 156.079Z" fill="#FFD7BA"/>
<path d="M236.612 27.3455C235.709 18.1327 241.659 8.45646 249.856 6.20999C257.934 3.99615 265.108 5.91419 271.254 11.5997C272.104 12.386 272.834 13.3017 273.62 14.1575C273.948 14.7918 273.783 15.4088 273.568 16.031C272.628 18.7527 270.993 20.9979 268.837 22.8732C263.827 27.2323 258.008 29.6774 251.394 30.3193C248.333 30.6164 245.29 30.6974 242.235 30.2959C240.621 30.0838 239.155 29.4938 237.753 28.7012C237.2 28.3883 236.835 27.9301 236.612 27.3455Z" fill="#FEFEFE"/>
<path d="M129.927 125.295C129.568 127.768 129.185 130.238 128.87 132.716C128.799 133.276 128.486 133.554 128.107 133.829C126.408 135.061 124.491 135.219 122.551 134.717C116.243 133.086 112.635 128.938 111.215 122.632C109.514 115.078 110.415 107.735 112.619 100.449C114.266 95.0052 116.449 89.7906 119.232 84.8286C120.019 85.011 119.682 85.6121 119.673 86.0662C119.617 88.9069 119.215 91.7351 119.358 94.5835C119.707 101.534 120.378 108.425 123.13 114.931C124.504 118.177 126.3 121.143 128.855 123.614C129.337 124.079 129.952 124.492 129.927 125.295Z" fill="#FEFEFE"/>
<path d="M279.336 121.634C278.117 115.65 276.399 109.808 274.325 104.068C274.285 103.645 274.491 103.314 274.764 103.034C278.356 99.3544 279.972 94.7053 281.311 89.8932C282.849 84.3618 282.747 78.7463 282.376 73.1038C282.317 72.2024 282.212 71.3039 282.184 70.4017C282.174 70.1101 282.262 69.7832 282.691 69.8132C284.693 72.3581 286.636 74.9431 288.18 77.8024C289.306 80.2403 289.438 82.8857 289.767 85.4868C290.274 89.4837 290.163 93.5115 289.985 97.5076C289.707 103.753 288.552 109.852 285.626 115.48C284.42 117.8 282.853 119.856 280.742 121.437C280.361 121.723 279.91 122.366 279.336 121.634Z" fill="#FEFEFE"/>
<path d="M136.917 100.956C134.66 106.594 132.781 112.352 131.404 118.27C130.997 119.346 130.567 118.589 130.27 118.234C128.959 116.667 128.024 114.865 127.275 112.982C125.134 107.602 124.241 101.984 124.044 96.213C123.875 91.257 124.092 86.3366 124.844 81.4375C125.147 79.4612 125.87 77.5235 125.395 75.4752C127.279 72.8078 129.43 70.3639 131.662 67.9882C132.502 68.2003 132.216 68.8564 132.133 69.3462C131.494 73.109 131.504 76.9013 131.539 80.698C131.6 87.3048 133.37 93.4573 136.437 99.2697C136.715 99.7976 137.088 100.299 136.917 100.956Z" fill="#FEFEFE"/>
<path d="M295.308 92.9204C297.164 98.9312 298.256 105.055 297.951 111.372C297.633 117.949 295.731 124.056 292.354 129.702C291.733 130.74 290.94 131.647 290.093 132.518C287.702 134.975 284.893 135.3 281.764 134.303C281.229 134.132 281.287 133.741 281.238 133.398C280.992 131.65 280.78 129.897 280.555 128.145C280.326 127.443 280.641 126.988 281.23 126.654C286.288 123.776 289.345 119.274 291.35 113.981C293.351 108.694 294.328 103.192 294.507 97.5431C294.549 96.2524 294.815 94.9773 294.802 93.6783C294.799 93.3682 294.814 92.9525 295.308 92.9204Z" fill="#FEFEFE"/>
<path d="M125.395 75.4752C126.052 76.6273 126.033 77.8024 125.728 79.0802C124.876 82.6427 124.55 86.2768 124.413 89.9349C124.164 96.6238 124.571 103.238 126.507 109.692C127.403 112.678 128.618 115.517 130.531 118.01C130.72 118.256 130.885 118.971 131.404 118.27C130.911 120.612 130.419 122.954 129.926 125.295C128.019 123.252 126.064 121.27 124.641 118.806C122.236 114.638 120.878 110.131 120.051 105.447C119.203 100.648 118.897 95.795 119.03 90.9231C119.08 89.1211 119.273 87.3227 119.412 85.5236C119.432 85.262 119.497 85.0081 119.232 84.8286C121.076 81.572 123.056 78.4054 125.395 75.4752Z" fill="#BEBEBE"/>
<path d="M295.308 92.9204C294.961 94.8182 294.986 96.7458 294.85 98.6608C294.403 104.97 293.279 111.128 290.482 116.866C288.4 121.138 285.528 124.737 281.247 127.022C280.749 127.287 280.588 127.649 280.555 128.145C280.149 125.975 279.742 123.804 279.336 121.634C280.25 121.796 280.695 121.049 281.229 120.577C283.944 118.183 285.634 115.119 286.873 111.764C289.421 104.863 289.829 97.6894 289.7 90.4304C289.623 86.1631 288.976 81.9768 288.18 77.8024C291.008 82.0568 293.118 86.6609 294.825 91.4603C294.997 91.9433 295.148 92.4334 295.308 92.9204Z" fill="#BEBEBE"/>
<path d="M236.612 27.3455C238.557 29.2956 241.061 29.9981 243.661 30.1475C253.597 30.7184 262.711 28.6818 269.955 21.2671C271.88 19.2959 273.283 16.9831 273.62 14.1575C275.195 16.0504 276.477 18.1249 277.48 20.3724C275.562 24.2398 272.473 27.0121 269.022 29.4578C263.28 33.5272 256.808 35.3222 249.865 35.7667C248.284 35.868 246.716 36.0345 245.134 35.8835C243.123 35.1609 241.118 34.4196 239.097 33.7285C238.595 33.5573 238.368 33.2019 238.097 32.8142C236.944 31.165 236.502 29.3324 236.612 27.3455Z" fill="#BEBEBE"/>
<path d="M245.134 35.8835C246.835 35.3932 248.598 35.5665 250.329 35.4372C259.581 34.7454 267.617 31.4351 274.099 24.6636C275.118 23.5995 275.928 22.3785 276.716 21.1419C276.913 20.8332 276.964 20.369 277.48 20.3724C277.755 21.0554 278.031 21.7387 278.306 22.422C278.485 22.9338 278.406 23.4384 278.254 23.9375C277.024 27.9552 275.382 31.7827 272.836 35.1544C270.656 38.0401 268.104 40.521 264.612 41.7765C262.914 42.387 261.17 42.8789 259.322 42.7017C254.731 40.1402 250.031 37.8067 245.134 35.8835Z" fill="#FEFEFE"/>
<path d="M282.691 69.8132C282.21 70.9444 282.683 72.0734 282.783 73.1771C283.614 82.3327 282.501 91.1163 278.059 99.3101C277.083 101.109 275.646 102.542 274.325 104.068C273.507 102.145 272.689 100.222 271.871 98.2992C273.311 97.727 273.716 96.2964 274.24 95.1127C277.075 88.7095 278.243 82.0224 277.584 74.9985C277.263 71.5652 276.835 68.176 275.948 64.8419C275.57 63.4209 274.847 62.1431 274.4 60.7556C277.479 63.4864 280.161 66.5807 282.691 69.8132Z" fill="#BEBEBE"/>
<path d="M136.917 100.956C134.406 96.8792 132.935 92.4054 131.898 87.7685C130.806 82.8816 130.997 77.9418 131.355 73.0028C131.463 71.5072 131.72 70.0225 131.903 68.5324C131.931 68.3104 131.89 68.104 131.662 67.9882C134.272 65.2361 136.913 62.5169 139.961 60.2332C138.434 63.4401 137.499 66.8143 136.977 70.3256C135.804 78.2088 136.094 85.9476 139.118 93.4325C139.295 93.8707 139.261 94.4991 139.897 94.67C138.903 96.7653 137.91 98.8605 136.917 100.956Z" fill="#BEBEBE"/>
<path d="M218.748 231.755C217.528 235.13 215.317 237.475 212.184 238.933C206.518 241.571 200.171 239.425 197.105 233.941C196.566 232.978 196.682 232.779 197.799 232.754C201.219 232.676 204.1 231.201 206.675 229.049C207.032 228.75 207.256 228.389 207.835 228.864C210.826 231.324 214.319 232.101 218.115 231.757C218.282 231.741 218.452 231.755 218.748 231.755Z" fill="#F6D38E"/>
<path d="M259.323 42.7017C261.039 42.1606 262.874 42.1433 264.564 41.4659C268.169 40.0216 270.813 37.4532 273.004 34.3478C275.561 30.7254 277.188 26.6858 278.307 22.4218C279.688 26.0302 280.3 29.7409 279.797 33.6003C279.622 33.9158 279.631 34.2916 279.466 34.611C276.615 39.7178 272.837 43.8725 267.423 46.3516C266.913 46.5849 266.417 46.838 265.833 46.7953C263.663 45.4307 261.493 44.0662 259.323 42.7017Z" fill="#BEBEBE"/>
<path d="M287.632 150.876C287.716 153.263 287.469 155.655 286.531 157.927C285.466 160.51 283.581 162.108 280.785 162.571C280.134 162.679 279.755 162.708 279.924 161.779C281.081 155.402 281.644 148.965 281.613 142.484C281.608 141.444 281.976 141.249 282.876 141.319C284.723 141.463 285.884 142.471 286.577 144.111C287.485 146.261 287.698 148.522 287.632 150.876Z" fill="#FEF8EA"/>
<path d="M122.654 150.811C122.668 148.56 122.86 146.332 123.716 144.224C124.395 142.55 125.555 141.454 127.465 141.319C128.109 141.274 128.377 141.419 128.376 142.139C128.372 148.738 128.907 155.295 130.086 161.791C130.232 162.597 129.908 162.665 129.271 162.532C126.441 161.942 124.649 160.188 123.666 157.538C122.861 155.368 122.665 153.103 122.654 150.811Z" fill="#FEF8EA"/>
<path d="M204.184 223.825C202.382 226.36 198.684 227.928 196.12 227.356C194.134 226.912 193.116 225.491 192.396 223.752C192.219 223.325 192.307 223.078 192.819 223.134C196.568 223.545 200.332 223.742 204.184 223.825Z" fill="#F6D38E"/>
<path d="M265.833 46.7952C269.521 45.2149 272.754 43.0109 275.405 39.9667C276.913 38.2357 278.108 36.2982 279.327 34.3713C279.817 34.3558 279.702 34.628 279.58 34.9031C278.629 40.7471 275.203 44.5537 269.821 46.7426C269.305 46.9527 268.754 47.0794 268.24 47.2933C267.313 47.6792 266.499 47.6235 265.833 46.7952Z" fill="#483838"/>
<path d="M216.507 226.511C214.663 226.472 212.925 226.075 211.424 224.936C211.113 224.7 210.77 224.414 210.859 223.988C210.971 223.449 211.492 223.639 211.836 223.609C215.01 223.332 218.186 223.065 221.324 222.498C222.238 222.333 222.138 222.742 221.978 223.327C221.504 225.063 219.776 226.311 217.54 226.507C217.198 226.537 216.851 226.511 216.507 226.511Z" fill="#F6D38E"/>
<path d="M279.58 34.9031C279.496 34.726 279.412 34.5485 279.327 34.3714C279.428 34.08 279.522 33.7855 279.797 33.6005C279.829 34.052 279.872 34.5053 279.58 34.9031Z" fill="#F2F2F2"/>
<path d="M167.13 141.136C167.104 138.901 167.587 137.174 168.543 135.593C168.838 135.107 168.972 134.778 168.56 134.251C167.58 132.994 167.167 131.505 167.063 129.923C166.974 128.575 167.521 127.74 168.588 127.64C169.672 127.539 170.35 128.241 170.511 129.575C170.583 130.17 170.652 130.785 170.859 131.341C171.179 132.204 171.567 132.992 172.816 132.589C173.509 132.365 174.27 132.618 174.959 132.895C180.25 135.023 181.465 142.885 177.044 146.457C175.258 147.9 173.269 148.252 171.107 147.382C168.701 146.414 167.523 144.535 167.181 142.05C167.122 141.625 167.133 141.19 167.13 141.136Z" fill="#6E4100"/>
<path d="M241.823 140.383C241.785 143.7 240.833 146.044 238.021 147.294C235.625 148.36 233.424 147.918 231.58 146.159C229.355 144.036 228.471 141.453 229.469 138.402C229.875 137.16 230.423 135.982 231.313 135.028C231.836 134.468 231.804 134.073 231.385 133.496C230.725 132.586 230.248 131.563 229.971 130.471C229.714 129.458 230.031 128.641 231.09 128.338C232.099 128.05 232.852 128.414 233.241 129.445C233.454 130.007 233.724 130.547 233.967 131.097C234.391 132.058 234.954 132.579 236.177 132.617C238.488 132.69 240.677 135.067 241.446 138.003C241.686 138.92 241.865 139.854 241.823 140.383Z" fill="#6E4100"/>
<path d="M206.247 200.895C204.742 200.85 203.344 200.31 202.074 199.457C198.314 196.931 195.618 193.406 193.121 189.721C192.429 188.701 192.837 187.398 193.839 186.785C194.872 186.153 196.031 186.359 196.792 187.434C198.39 189.689 200.06 191.879 202.027 193.828C202.733 194.527 203.479 195.176 204.319 195.714C206.07 196.836 206.867 196.817 208.496 195.473C210.936 193.459 212.537 190.797 214.084 188.1C214.299 187.727 214.497 187.344 214.727 186.981C215.423 185.883 216.536 185.551 217.615 186.105C218.631 186.625 219.168 187.791 218.609 188.856C216.5 192.877 214.188 196.77 210.394 199.496C209.179 200.369 207.815 200.869 206.247 200.895Z" fill="#6E4100"/>
<path d="M170.234 199.244C171.243 191.484 172.844 183.907 177.09 177.147C178.125 175.5 179.322 173.982 180.75 172.655C181.629 171.839 182.604 171.92 183.449 172.585C184.264 173.227 184.452 174.125 183.955 175.13C183.48 176.089 182.587 176.671 181.966 177.497C178.441 182.184 176.681 187.601 175.487 193.238C175.043 195.334 174.721 197.459 174.441 199.584C174.215 201.296 173.346 202.314 172.032 202.166C170.76 202.023 170.148 201.012 170.234 199.244Z" fill="#F5CEA8"/>
<path d="M243.336 199.921C243.362 200.92 243.341 201.909 242.856 202.819C242.346 203.776 241.57 204.16 240.494 203.882C239.428 203.608 238.73 202.889 238.947 201.836C239.424 199.511 238.802 197.313 238.375 195.103C237.352 189.813 235.748 184.696 233.423 179.823C232.923 178.777 232.33 177.78 231.616 176.854C230.863 175.877 230.958 174.458 231.754 173.801C232.751 172.977 233.845 173.042 234.815 174.15C236.626 176.219 237.699 178.715 238.689 181.244C240.809 186.661 242.345 192.238 243.23 197.989C243.328 198.624 243.304 199.277 243.336 199.921Z" fill="#F5CEA8"/>
<path d="M151.099 156.079C149.864 157.032 148.81 158.147 148.202 159.6C147.72 160.749 147.02 161.55 145.682 161.207C144.413 160.882 143.921 159.953 144.111 158.664C145.055 155.331 147.562 153.321 150.248 151.489C151.454 150.667 152.767 150.015 154.15 149.519C155.476 149.043 156.791 149.475 157.237 150.55C157.719 151.71 157.066 152.938 155.674 153.481C154.022 154.125 152.515 155.021 151.099 156.079Z" fill="#F5CEA8"/>
<path d="M260.922 155.302C261.621 156.336 262.366 157.349 262.666 158.591C262.942 159.73 262.44 160.734 261.424 161.129C260.404 161.525 259.273 161.177 258.82 160.102C257.815 157.721 255.947 156.194 253.91 154.799C252.94 154.35 251.968 153.908 251.002 153.453C249.611 152.798 249.068 151.822 249.482 150.745C249.99 149.421 250.986 148.973 252.526 149.549C255.792 150.77 258.656 152.607 260.922 155.302Z" fill="#F5CEA8"/>
<path d="M163.5 93.7104C163.532 89.0162 168.92 84.6486 173.151 85.8828C174.21 86.1918 175.138 86.7319 175.847 87.5688C176.547 88.3953 176.589 89.3096 175.824 90.1279C175.056 90.9482 174.087 91.0285 173.294 90.289C172.245 89.3114 171.19 89.1739 170.026 89.8958C168.551 90.8112 167.322 92.0223 167.274 93.85C167.226 95.7066 166.858 96.508 165.572 96.5456C164.241 96.5842 163.487 95.5528 163.5 93.7104Z" fill="#6E4100"/>
<path d="M235.105 85.6349C239.695 85.673 244.029 90.548 243.355 94.576C243.12 95.9791 242.31 96.6878 241.126 96.5249C240.006 96.3708 239.502 95.559 239.635 94.1235C239.814 92.185 237.407 89.4744 235.457 89.4272C234.82 89.4117 234.33 89.7093 233.848 90.1173C232.821 90.9876 231.746 90.9404 231.009 90.0626C230.331 89.2545 230.449 88.1549 231.333 87.3035C232.467 86.2105 233.833 85.6637 235.105 85.6349Z" fill="#6E4100"/>
<path d="M256.025 141.565C258.975 141.501 261.322 142.406 263.258 144.31C264.237 145.273 264.295 146.558 263.478 147.419C262.657 148.285 261.427 148.264 260.363 147.361C258.594 145.86 256.606 145.324 254.365 146.056C253.47 146.349 252.66 146.325 251.959 145.666C250.872 144.642 251.204 142.858 252.617 142.245C253.769 141.745 254.973 141.416 256.025 141.565Z" fill="#F5CEA8"/>
<path d="M153.153 146.265C152.932 146.214 152.631 146.177 152.353 146.076C150.192 145.291 148.322 145.854 146.586 147.233C145.025 148.474 143.507 148.222 142.83 146.705C142.41 145.761 142.741 144.983 143.358 144.356C145.939 141.735 150.686 140.78 154.032 142.158C155.019 142.564 155.554 143.318 155.378 144.376C155.187 145.53 154.406 146.145 153.153 146.265Z" fill="#F5CEA8"/>
<path d="M201.316 159.672C201.38 158.18 201.956 157.298 203.092 156.938C204.185 156.592 205.279 156.75 206.004 157.741C206.636 158.606 207.233 159.524 207.664 160.499C208.152 161.602 207.986 162.718 207.021 163.557C206.121 164.34 205.014 164.561 204.041 163.882C202.509 162.813 201.766 161.17 201.316 159.672Z" fill="#6E4100"/>
</g>
<g clip-path="url(#clip1)">
<path d="M67.9134 607.895L67.6966 607.218L67.5371 606.724L61.438 587.725L65.1382 566.263L72.5388 548.872L83.2697 542.766L111.022 545.911L129.708 543.691L139.514 545.541L146.729 555.717L151.17 568.483L154.5 580.324L153.945 591.98L151.91 601.97L150.06 608.631L67.3583 609L67.9134 607.895Z" fill="#91C6CA"/>
<path d="M75.32 543.911C69.8095 542.007 64.7698 539.647 60.045 536.644C47.0223 528.367 38.221 516.675 32.4996 502.507C30.892 498.526 29.5701 494.45 28.5597 490.274C28.4026 489.626 28.3432 489.022 27.3341 488.964C20.5338 488.576 15.8753 484.851 14.188 478.28C12.7346 472.618 12.7868 466.946 14.7483 461.363C15.0924 460.384 16.326 459.448 15.925 458.627C15.5925 457.946 14.1616 457.825 13.2408 457.404C5.95782 454.078 2.35394 448.078 0.842837 440.489C-1.00795 431.195 0.370775 422.218 3.21398 413.339C7.60324 399.63 14.9723 387.706 24.9133 377.384C40.1131 361.601 58.3923 350.661 79.1168 343.831C91.7839 339.656 104.872 338.719 118.13 339.891C123.892 340.401 129.579 341.337 135.196 342.713C135.319 342.743 135.456 342.716 135.719 342.716C135.202 340.012 135.052 337.319 135.415 334.61C136.307 327.942 138.218 321.646 142.947 316.658C149.165 310.099 157.059 308.238 165.766 309.338C179.657 311.092 190.084 323.29 192.584 336.491C193.574 341.723 193.437 346.884 191.475 351.899C189.394 357.219 185.694 361.05 180.592 363.563C180.179 363.767 179.762 363.964 179.349 364.167C179.316 364.184 179.296 364.227 179.188 364.356C183.024 367.271 186.45 370.637 189.689 374.182C199.681 385.117 207.325 397.4 210.728 411.984C213.51 423.904 213.176 435.63 207.823 446.898C205.713 451.339 203.119 455.397 198.583 457.783C198.059 458.059 198.119 458.256 198.389 458.714C202.56 465.785 202.355 473.217 199.614 480.58C197.584 486.034 193.157 488.74 187.36 488.944C186.067 488.99 185.895 489.616 185.661 490.538C182.885 501.525 178.424 511.728 171.503 520.776C163.879 530.745 154.144 537.909 142.517 542.552C142.176 542.689 141.83 542.817 141.491 542.958C141.364 543.011 141.249 543.093 141.046 543.208C142.018 544.249 143.022 545.235 143.926 546.306C150.49 554.083 154.235 563.178 156.211 573.052C157.927 581.625 158.07 590.201 155.691 598.704C154.93 601.424 153.888 604.032 152.44 606.466C151.686 607.732 149.724 608.245 148.451 607.56C147.213 606.891 146.65 605.162 147.41 603.81C151.025 597.391 152.064 590.414 151.721 583.209C151.211 572.543 148.263 562.594 142.338 553.625C140.651 551.073 138.689 548.74 136.339 546.755C135.791 546.292 132.112 545.869 131.546 546.197C131.188 546.404 131.287 546.763 131.273 547.065C131.155 549.595 130.33 551.854 128.667 553.772C128.328 554.162 128.262 554.566 128.211 555.029C127.108 565.041 118.163 572.594 108.159 571.966C100.252 571.469 92.8091 564.482 91.8719 556.65C91.8133 556.162 91.6834 555.781 91.3232 555.44C89.1583 553.388 88.0882 550.757 87.4887 547.915C87.3533 547.273 87.1568 546.967 86.5005 546.86C85.4548 546.689 84.4302 546.392 83.3864 546.204C82.1464 545.981 81.1118 546.261 80.1305 547.195C73.9962 553.033 70.2894 560.281 67.8885 568.259C65.1019 577.518 64.2044 586.895 66.6164 596.403C67.2314 598.826 68.1422 601.138 69.3541 603.33C70.3096 605.059 69.9647 606.81 68.5612 607.562C67.1043 608.342 65.2543 607.712 64.366 606.1C61.2955 600.524 59.9106 594.494 59.6609 588.189C59.1405 575.054 62.2907 562.85 69.1565 551.63C70.8483 548.865 72.872 546.342 75.32 543.911Z" fill="#6E4100"/>
<path d="M33.9234 488.163C31.4148 478.1 30.2304 467.86 30.8695 457.531C32.0298 438.781 36.688 420.979 47.1012 405.108C58.9788 387.005 75.8454 376.199 97.2073 373.057C119.791 369.735 139.459 376.648 156.178 391.926C166.659 401.504 173.198 413.639 177.606 426.994C180.451 435.614 182.347 444.456 183.214 453.484C184.039 462.075 183.487 470.646 182.183 479.169C181.764 481.907 181.253 484.627 180.585 487.316C179.579 487.212 179.498 486.283 179.172 485.637C177.519 482.356 175.189 479.703 172.11 477.691C170.539 476.665 168.756 476.203 167.01 475.628C164.726 473.396 162.291 471.375 159.315 470.099C158.679 469.826 158.057 469.518 157.363 469.421C156.401 469.286 155.608 469.534 155.21 470.502C154.805 471.486 155.272 472.199 156.024 472.771C156.694 473.28 157.547 473.423 158.27 473.83C158.784 474.119 159.374 474.326 159.64 474.931C159.382 475.697 158.654 475.683 158.059 475.864C151.224 477.94 146.544 482.269 144.155 489.047C142.096 494.891 144.538 500.273 148.544 503.573C151.758 506.221 155.582 507.385 159.598 508.024C162.636 508.508 165.662 508.53 168.652 507.594C170.171 507.119 171.569 506.447 172.874 505.551C173.314 505.25 173.728 504.791 174.363 505.093C171.387 511.572 167.419 517.385 162.487 522.521C152.602 532.815 140.346 538.629 126.485 541.257C110.953 544.203 95.4908 543.88 80.2618 539.463C61.9152 534.142 48.5248 522.812 40.1404 505.616C40.061 505.453 40.0116 505.275 39.9483 505.104C40.3505 504.249 40.8891 504.916 41.2599 505.067C44.0143 506.193 46.842 506.971 49.8114 507.289C54.5124 507.794 58.7076 506.711 62.2369 503.484C64.2164 501.674 66.1421 499.801 67.2675 497.288C68.9462 493.539 68.2144 489.936 66.4435 486.486C63.6708 481.084 59.4056 477.661 53.2124 476.954C52.4276 476.864 51.6436 476.905 50.8605 476.868C50.3223 476.842 49.7287 476.963 49.3438 476.414C49.3585 475.696 49.928 475.41 50.4189 475.093C51.6197 474.318 52.8797 473.655 54.1999 473.096C55.4634 472.562 55.9857 471.507 55.5716 470.481C55.1815 469.514 54.1138 469.043 52.8689 469.537C48.1585 471.408 44.15 474.111 42.1352 479.043C41.185 480.425 39.6791 481.209 38.5346 482.398C37.0877 483.901 35.9168 485.564 34.9183 487.376C34.7085 487.757 34.6863 488.451 33.9234 488.163Z" fill="#CCA18F"/>
<path d="M178.79 414.321C174.548 405.045 169.041 396.628 161.826 389.375C151.01 378.501 138.05 371.418 123.084 368.34C96.5108 362.874 73.4208 370.148 53.6066 388.319C46.7677 394.591 41.5847 402.173 37.3889 410.432C36.6498 410.724 36.533 410.071 36.3759 409.675C35.0327 406.28 33.9426 402.801 33.5125 399.168C32.7634 392.84 33.2666 386.567 34.627 380.359C35.1607 377.924 35.8295 375.525 37.4583 373.536C40.0747 370.972 43.0423 368.843 46.0403 366.771C57.8405 358.618 70.4355 352.067 84.3207 348.231C91.5157 346.244 98.8758 345.303 106.346 345.207C130.95 344.888 153.126 352.093 172.906 366.69C175.952 368.937 178.88 371.343 181.5 374.095C183.128 376.112 183.675 378.562 184.172 381.003C185.499 387.514 186.075 394.087 184.876 400.67C184.082 405.033 182.955 409.341 180.506 413.144C180.129 413.728 179.881 414.695 178.79 414.321Z" fill="white"/>
<path d="M174.363 505.093C172.994 505.655 171.942 506.743 170.563 507.314C165.725 509.319 160.854 508.949 155.96 507.619C152.67 506.726 149.633 505.343 147.212 502.856C143.036 498.565 141.873 493.434 144.233 487.771C146.93 481.298 151.701 477.195 158.468 475.402C158.874 475.295 159.278 475.219 159.546 474.856C161.219 475.191 162.232 476.47 163.341 477.579C164.057 478.294 164.483 479.235 164.97 480.123C165.612 481.294 166.603 481.676 167.586 481.213C168.512 480.776 168.824 479.845 168.45 478.609C168.249 477.945 167.916 477.344 167.558 476.752C167.309 476.338 166.87 475.977 167.059 475.395C172.574 476.469 176.253 479.923 179.01 484.587C179.545 485.491 179.756 486.583 180.585 487.316C179.135 493.46 177.213 499.439 174.363 505.093Z" fill="#EBC6B6"/>
<path d="M49.3918 476.228C49.8938 476.738 50.5332 476.502 51.1027 476.495C60.6458 476.378 66.7576 483.135 68.4608 491.319C69.1735 494.742 67.9107 497.913 65.6459 500.538C63.5995 502.909 61.4137 505.192 58.4481 506.461C54.2412 508.262 49.9463 508.063 45.6192 506.935C43.9199 506.492 42.2737 505.916 40.686 505.167C40.4603 505.06 40.2192 504.809 39.9483 505.104C37.3568 500.055 35.6104 494.697 34.1617 489.231C34.0685 488.878 34.0022 488.519 33.9233 488.163C34.7318 487.687 34.8333 486.748 35.2527 486.032C36.9347 483.163 39.4055 481.074 41.9048 478.997C42.2345 479.253 42.2082 479.65 42.2984 479.999C42.5079 480.814 43.0757 481.239 43.8639 481.365C44.6942 481.496 45.3011 481.119 45.6741 480.388C46.3266 479.108 47.0243 477.862 48.1205 476.898C48.4862 476.577 48.7768 476.088 49.3918 476.228Z" fill="#EBC6B6"/>
<path d="M141.013 338.299C140.045 328.428 146.421 318.06 155.203 315.654C163.858 313.282 171.545 315.337 178.129 321.428C179.04 322.271 179.822 323.252 180.664 324.169C181.016 324.848 180.84 325.509 180.609 326.176C179.601 329.092 177.85 331.498 175.54 333.507C170.172 338.177 163.937 340.797 156.851 341.485C153.571 341.803 150.311 341.89 147.038 341.46C145.309 341.233 143.738 340.6 142.236 339.751C141.643 339.416 141.252 338.925 141.013 338.299Z" fill="white"/>
<path d="M26.707 443.245C26.3229 445.894 25.9122 448.541 25.5752 451.196C25.4992 451.795 25.164 452.094 24.7577 452.388C22.9369 453.708 20.8832 453.877 18.8048 453.34C12.0458 451.592 8.17996 447.148 6.65859 440.392C4.83639 432.298 5.80161 424.431 8.16359 416.624C9.92834 410.791 12.2673 405.204 15.249 399.888C16.0921 400.083 15.7305 400.727 15.721 401.214C15.6611 404.257 15.2307 407.288 15.3838 410.34C15.7577 417.787 16.4764 425.17 19.4254 432.14C20.8971 435.619 22.8214 438.796 25.5594 441.443C26.0756 441.942 26.7342 442.385 26.707 443.245Z" fill="white"/>
<path d="M186.788 439.322C185.483 432.911 183.641 426.652 181.419 420.501C181.377 420.048 181.597 419.694 181.89 419.394C185.738 415.451 187.47 410.47 188.904 405.314C190.553 399.388 190.443 393.371 190.046 387.326C189.983 386.36 189.87 385.397 189.84 384.43C189.829 384.118 189.923 383.768 190.384 383.8C192.528 386.527 194.61 389.296 196.264 392.36C197.471 394.972 197.612 397.806 197.965 400.593C198.507 404.875 198.389 409.191 198.199 413.472C197.901 420.164 196.662 426.699 193.528 432.729C192.235 435.214 190.557 437.417 188.295 439.111C187.886 439.417 187.404 440.106 186.788 439.322Z" fill="white"/>
<path d="M34.197 417.167C31.779 423.208 29.765 429.377 28.2903 435.718C27.854 436.871 27.393 436.059 27.0753 435.679C25.6707 434 24.6683 432.07 23.8657 430.052C21.5723 424.287 20.6157 418.268 20.4042 412.085C20.2227 406.775 20.4558 401.504 21.2615 396.254C21.5865 394.137 22.361 392.061 21.8515 389.866C23.8702 387.008 26.1747 384.39 28.5667 381.844C29.4664 382.072 29.1597 382.775 29.0706 383.3C28.3866 387.331 28.3977 391.394 28.4351 395.462C28.5001 402.541 30.3964 409.133 33.6822 415.36C33.9805 415.926 34.3799 416.464 34.197 417.167Z" fill="white"/>
<path d="M203.902 408.558C205.89 414.998 207.06 421.559 206.733 428.327C206.393 435.374 204.355 441.917 200.737 447.966C200.071 449.079 199.222 450.051 198.314 450.984C195.752 453.616 192.742 453.964 189.39 452.896C188.816 452.713 188.879 452.294 188.827 451.927C188.563 450.054 188.335 448.175 188.095 446.298C187.849 445.546 188.187 445.059 188.818 444.7C194.237 441.617 197.513 436.794 199.66 431.122C201.805 425.458 202.851 419.562 203.044 413.51C203.088 412.128 203.373 410.761 203.36 409.37C203.356 409.037 203.372 408.592 203.902 408.558Z" fill="white"/>
<path d="M21.8515 389.866C22.5559 391.101 22.5356 392.36 22.2084 393.729C21.2956 397.546 20.9462 401.439 20.8003 405.359C20.5336 412.526 20.9687 419.612 23.0432 426.527C24.0031 429.727 25.305 432.768 27.3553 435.439C27.5579 435.703 27.7344 436.469 28.2903 435.718C27.7624 438.227 27.2346 440.736 26.7067 443.245C24.6631 441.056 22.5689 438.932 21.0445 436.292C18.4672 431.827 17.0127 426.998 16.126 421.979C15.2177 416.837 14.8899 411.637 15.0326 406.418C15.0856 404.487 15.2931 402.56 15.4413 400.632C15.4627 400.352 15.5329 400.08 15.2487 399.888C17.2241 396.399 19.3455 393.006 21.8515 389.866Z" fill="#BEBEBE"/>
<path d="M203.902 408.558C203.53 410.591 203.556 412.656 203.411 414.708C202.932 421.468 201.728 428.066 198.731 434.213C196.5 438.791 193.423 442.647 188.836 445.095C188.303 445.379 188.129 445.767 188.095 446.299C187.659 443.973 187.224 441.647 186.788 439.322C187.767 439.496 188.244 438.696 188.817 438.19C191.726 435.624 193.537 432.342 194.864 428.747C197.594 421.353 198.031 413.667 197.892 405.89C197.81 401.318 197.117 396.832 196.264 392.36C199.294 396.918 201.554 401.851 203.384 406.993C203.568 407.511 203.73 408.036 203.902 408.558Z" fill="#BEBEBE"/>
<path d="M141.013 338.299C143.097 340.388 145.779 341.141 148.565 341.301C159.211 341.913 168.976 339.73 176.737 331.786C178.8 329.674 180.303 327.196 180.664 324.169C182.351 326.197 183.725 328.42 184.8 330.828C182.745 334.971 179.435 337.942 175.738 340.562C169.586 344.922 162.652 346.845 155.212 347.322C153.518 347.43 151.839 347.608 150.144 347.447C147.989 346.672 145.841 345.878 143.675 345.138C143.138 344.954 142.894 344.573 142.604 344.158C141.369 342.391 140.895 340.428 141.013 338.299Z" fill="#BEBEBE"/>
<path d="M150.144 347.447C151.966 346.921 153.855 347.107 155.709 346.968C165.623 346.227 174.233 342.68 181.178 335.425C182.27 334.285 183.137 332.977 183.981 331.652C184.192 331.321 184.248 330.824 184.8 330.828C185.095 331.559 185.39 332.291 185.686 333.024C185.877 333.572 185.793 334.113 185.629 334.647C184.312 338.952 182.553 343.053 179.824 346.665C177.488 349.757 174.754 352.415 171.013 353.76C169.194 354.415 167.325 354.942 165.346 354.752C160.427 352.007 155.391 349.507 150.144 347.447Z" fill="white"/>
<path d="M190.383 383.8C189.868 385.012 190.374 386.222 190.482 387.404C191.372 397.214 190.18 406.625 185.42 415.404C184.375 417.331 182.835 418.867 181.42 420.501C180.543 418.441 179.666 416.381 178.79 414.321C180.333 413.707 180.767 412.175 181.329 410.906C184.366 404.046 185.617 396.881 184.912 389.356C184.567 385.677 184.109 382.046 183.159 378.473C182.754 376.951 181.979 375.582 181.5 374.095C184.799 377.021 187.672 380.336 190.383 383.8Z" fill="#BEBEBE"/>
<path d="M34.1969 417.167C31.5058 412.799 29.93 408.006 28.8194 403.038C27.6491 397.802 27.8539 392.509 28.2369 387.217C28.3529 385.615 28.6279 384.024 28.825 382.428C28.8544 382.19 28.8105 381.969 28.5666 381.844C31.3632 378.896 34.1928 375.982 37.4581 373.536C35.8224 376.972 34.8205 380.587 34.2608 384.349C33.0039 392.795 33.3147 401.087 36.5545 409.106C36.7443 409.576 36.7077 410.249 37.3893 410.432C36.325 412.677 35.2609 414.922 34.1969 417.167Z" fill="#BEBEBE"/>
<path d="M121.874 557.308C120.566 560.925 118.197 563.437 114.84 565C108.77 567.826 101.97 565.526 98.6842 559.651C98.107 558.619 98.2313 558.407 99.4274 558.379C103.092 558.296 106.178 556.715 108.938 554.409C109.32 554.089 109.561 553.702 110.18 554.212C113.386 556.847 117.128 557.679 121.194 557.311C121.374 557.294 121.556 557.308 121.874 557.308Z" fill="#F2A0A0"/>
<path d="M165.345 354.752C167.184 354.172 169.15 354.154 170.962 353.428C174.823 351.88 177.657 349.128 180.004 345.801C182.744 341.92 184.487 337.592 185.685 333.023C187.166 336.889 187.822 340.865 187.283 345C187.095 345.338 187.105 345.741 186.927 346.083C183.873 351.555 179.826 356.006 174.025 358.662C173.478 358.912 172.946 359.184 172.322 359.138C169.996 357.676 167.671 356.214 165.345 354.752Z" fill="#BEBEBE"/>
<path d="M195.677 470.653C195.767 473.21 195.502 475.773 194.498 478.208C193.357 480.975 191.337 482.687 188.341 483.183C187.643 483.299 187.238 483.33 187.418 482.335C188.658 475.502 189.262 468.605 189.228 461.661C189.223 460.547 189.617 460.339 190.582 460.414C192.561 460.568 193.805 461.647 194.547 463.405C195.519 465.708 195.748 468.131 195.677 470.653Z" fill="#CCA18F"/>
<path d="M18.915 470.583C18.9297 468.171 19.1359 465.784 20.0523 463.525C20.78 461.732 22.0236 460.557 24.07 460.414C24.7599 460.365 25.0466 460.521 25.046 461.292C25.0419 468.362 25.6141 475.387 26.8779 482.348C27.0347 483.212 26.6873 483.284 26.0043 483.142C22.973 482.51 21.0519 480.63 19.9988 477.791C19.1365 475.466 18.9264 473.039 18.915 470.583Z" fill="#CCA18F"/>
<path d="M106.269 548.812C104.338 551.529 100.376 553.209 97.629 552.595C95.5007 552.12 94.4103 550.598 93.6383 548.734C93.449 548.277 93.5434 548.013 94.0917 548.073C98.1086 548.513 102.142 548.724 106.269 548.812Z" fill="#F2A0A0"/>
<path d="M172.322 359.138C176.272 357.445 179.737 355.083 182.577 351.821C184.192 349.967 185.473 347.891 186.779 345.826C187.304 345.81 187.18 346.101 187.05 346.396C186.031 352.658 182.361 356.736 176.594 359.081C176.041 359.306 175.451 359.442 174.9 359.671C173.906 360.085 173.034 360.025 172.322 359.138Z" fill="#FDFDFD"/>
<path d="M119.471 551.69C117.496 551.649 115.634 551.223 114.026 550.002C113.693 549.75 113.325 549.444 113.42 548.987C113.54 548.409 114.098 548.613 114.468 548.581C117.868 548.285 121.271 547.999 124.632 547.391C125.612 547.214 125.505 547.652 125.334 548.279C124.826 550.139 122.974 551.476 120.579 551.686C120.212 551.718 119.84 551.69 119.471 551.69Z" fill="#F2A0A0"/>
<path d="M187.05 346.396C186.96 346.206 186.87 346.016 186.779 345.826C186.887 345.514 186.988 345.199 187.283 345.001C187.317 345.484 187.362 345.97 187.05 346.396Z" fill="#F2F2F2"/>
<path d="M66.5683 460.217C66.5403 457.823 67.057 455.972 68.0822 454.279C68.398 453.757 68.5409 453.405 68.1005 452.84C67.0498 451.493 66.6072 449.899 66.4956 448.203C66.4004 446.759 66.9863 445.864 68.1297 445.758C69.2916 445.649 70.0182 446.401 70.1908 447.83C70.268 448.468 70.3418 449.127 70.563 449.723C70.9063 450.647 71.322 451.492 72.6599 451.06C73.4026 450.82 74.2182 451.09 74.9561 451.387C80.625 453.667 81.9272 462.091 77.1902 465.918C75.2769 467.464 73.1456 467.842 70.8294 466.91C68.2515 465.872 66.9888 463.859 66.6224 461.197C66.5597 460.741 66.5711 460.275 66.5683 460.217Z" fill="#6E4100"/>
<path d="M146.596 459.41C146.555 462.964 145.535 465.476 142.523 466.816C139.955 467.958 137.597 467.483 135.622 465.599C133.237 463.324 132.29 460.557 133.36 457.287C133.795 455.957 134.381 454.695 135.336 453.673C135.896 453.073 135.861 452.65 135.413 452.031C134.705 451.056 134.194 449.96 133.898 448.791C133.622 447.705 133.961 446.83 135.097 446.505C136.177 446.196 136.985 446.587 137.402 447.692C137.629 448.294 137.919 448.872 138.179 449.461C138.634 450.491 139.237 451.048 140.547 451.09C143.023 451.168 145.368 453.714 146.192 456.86C146.45 457.843 146.642 458.843 146.596 459.41Z" fill="#6E4100"/>
<path d="M108.479 524.245C106.866 524.196 105.369 523.618 104.008 522.704C99.9788 519.998 97.0912 516.221 94.4153 512.273C93.6743 511.179 94.1109 509.784 95.1846 509.127C96.2919 508.449 97.5327 508.67 98.3486 509.822C100.06 512.238 101.85 514.584 103.958 516.673C104.714 517.422 105.513 518.117 106.413 518.694C108.289 519.896 109.143 519.876 110.888 518.435C113.503 516.277 115.218 513.425 116.876 510.536C117.106 510.136 117.319 509.726 117.565 509.336C118.31 508.161 119.503 507.805 120.659 508.398C121.747 508.956 122.323 510.205 121.724 511.345C119.464 515.654 116.987 519.825 112.923 522.746C111.621 523.681 110.159 524.217 108.479 524.245Z" fill="#6E4100"/>
<path d="M69.8938 522.475C70.9744 514.162 72.6898 506.043 77.2395 498.8C78.3484 497.035 79.6303 495.409 81.1608 493.987C82.1019 493.113 83.147 493.2 84.0523 493.913C84.9251 494.6 85.1274 495.562 84.5946 496.639C84.0859 497.666 83.1285 498.291 82.4632 499.175C78.6865 504.198 76.8007 510.001 75.5213 516.041C75.0459 518.286 74.7013 520.563 74.401 522.839C74.1587 524.675 73.2274 525.765 71.8195 525.606C70.4574 525.453 69.8016 524.37 69.8938 522.475Z" fill="#EBC6B6"/>
<path d="M148.217 523.201C148.245 524.271 148.223 525.331 147.703 526.306C147.157 527.331 146.325 527.742 145.172 527.445C144.029 527.151 143.282 526.381 143.514 525.253C144.026 522.762 143.359 520.406 142.901 518.039C141.806 512.371 140.087 506.889 137.596 501.668C137.06 500.546 136.425 499.479 135.66 498.486C134.853 497.44 134.955 495.919 135.807 495.215C136.876 494.333 138.049 494.402 139.088 495.589C141.028 497.806 142.178 500.48 143.238 503.19C145.51 508.993 147.155 514.969 148.104 521.131C148.209 521.811 148.182 522.511 148.217 523.201Z" fill="#EBC6B6"/>
<path d="M49.3919 476.228C48.0686 477.248 46.94 478.443 46.2875 480C45.7713 481.231 45.0215 482.089 43.5881 481.722C42.2288 481.374 41.7012 480.379 41.9052 478.997C42.9165 475.426 45.6023 473.272 48.4797 471.31C49.7718 470.429 51.1791 469.73 52.6611 469.199C54.082 468.689 55.4909 469.152 55.9688 470.304C56.4847 471.547 55.7854 472.862 54.2937 473.444C52.524 474.133 50.9091 475.094 49.3919 476.228Z" fill="#EBC6B6"/>
<path d="M167.059 475.395C167.809 476.503 168.607 477.588 168.928 478.919C169.223 480.139 168.686 481.216 167.597 481.638C166.505 482.063 165.292 481.689 164.807 480.538C163.73 477.987 161.73 476.351 159.546 474.856C158.508 474.375 157.466 473.901 156.431 473.414C154.941 472.712 154.359 471.666 154.802 470.512C155.347 469.094 156.413 468.614 158.063 469.231C161.563 470.539 164.632 472.507 167.059 475.395Z" fill="#EBC6B6"/>
<path d="M62.6784 409.404C62.7131 404.374 68.4855 399.695 73.0188 401.017C74.1541 401.348 75.1485 401.927 75.9075 402.824C76.6577 403.709 76.7029 404.689 75.8825 405.566C75.06 406.444 74.0221 406.531 73.1723 405.738C72.0486 404.691 70.9183 404.543 69.6711 405.317C68.09 406.298 66.7735 407.595 66.7224 409.554C66.6705 411.543 66.277 412.401 64.8986 412.442C63.4727 412.483 62.6648 411.378 62.6784 409.404Z" fill="#6E4100"/>
<path d="M139.398 400.752C144.316 400.793 148.96 406.016 148.237 410.331C147.986 411.835 147.117 412.594 145.85 412.42C144.65 412.254 144.109 411.385 144.251 409.847C144.443 407.77 141.865 404.865 139.775 404.815C139.093 404.798 138.567 405.117 138.051 405.554C136.951 406.487 135.799 406.436 135.01 405.496C134.283 404.63 134.41 403.452 135.356 402.539C136.572 401.368 138.035 400.783 139.398 400.752Z" fill="#6E4100"/>
<path d="M161.812 460.677C164.973 460.609 167.488 461.577 169.562 463.618C170.611 464.65 170.673 466.026 169.798 466.949C168.918 467.876 167.601 467.854 166.46 466.886C164.565 465.278 162.435 464.704 160.034 465.489C159.074 465.802 158.207 465.777 157.456 465.07C156.291 463.974 156.647 462.062 158.161 461.406C159.396 460.87 160.686 460.517 161.812 460.677Z" fill="#EBC6B6"/>
<path d="M51.593 465.712C51.3557 465.658 51.033 465.618 50.7349 465.51C48.4201 464.669 46.4164 465.273 44.5568 466.75C42.8839 468.079 41.2571 467.809 40.5324 466.184C40.0818 465.173 40.4373 464.339 41.0983 463.667C43.863 460.859 48.9491 459.836 52.5347 461.312C53.592 461.747 54.1645 462.555 53.9764 463.689C53.7716 464.925 52.9354 465.584 51.593 465.712Z" fill="#EBC6B6"/>
<path d="M103.196 480.077C103.264 478.478 103.881 477.533 105.099 477.148C106.27 476.777 107.442 476.946 108.218 478.009C108.895 478.935 109.535 479.919 109.997 480.963C110.52 482.146 110.342 483.34 109.308 484.24C108.343 485.079 107.157 485.315 106.115 484.588C104.474 483.442 103.678 481.682 103.196 480.077Z" fill="#6E4100"/>
</g>
<g clip-path="url(#clip2)">
<path d="M334.952 502.403C334.491 504.557 333.302 505.342 331.223 504.865C330.143 504.618 329.372 503.424 329.546 501.912C329.959 498.317 330.415 494.726 330.95 491.147C332.722 479.274 334.794 467.454 337.519 455.758C339.863 445.701 342.545 435.744 346.576 426.206C346.976 425.26 346.71 425.135 345.834 425.014C338.18 423.956 330.631 422.465 323.235 420.135C313.941 417.206 307.692 411.026 303.567 402.446C300.112 395.26 298.705 387.558 298 379.692C297.479 373.876 297.465 368.045 297.537 362.213C297.544 361.595 297.452 361.394 296.808 361.319C295.145 361.126 293.493 360.849 291.874 360.383C285.402 358.516 281.98 354.013 281.854 347.273C281.759 342.253 283.554 338.154 287.703 335.033C282.119 331.889 279.5 326.893 278.478 320.899C277.826 317.079 277.871 313.225 278.431 309.411C280.278 296.847 285.031 285.488 292.872 275.475C295.643 271.937 298.859 268.866 302.972 266.874C304.538 266.116 306.181 265.53 307.914 265.534C309.025 265.536 309.404 265.035 309.791 264.148C312.401 258.166 315.72 252.619 320.106 247.754C327.741 239.288 337.295 234.524 348.571 233.23C355.684 232.414 362.838 232.235 369.995 232.122C383.038 231.914 396.046 232.535 409.015 233.828C425.726 235.494 437.877 244.106 446.032 258.615C447.134 260.576 448.14 262.586 449.031 264.654C449.229 265.114 449.35 265.581 450.123 265.518C454.393 265.172 457.955 266.925 461.184 269.487C466.692 273.859 470.556 279.545 473.786 285.68C477.887 293.47 480.811 301.682 481.659 310.491C482.094 315.013 482.168 319.574 480.816 324.025C479.386 328.734 476.795 332.526 472.333 334.991C472.982 335.57 473.641 336.08 474.21 336.677C478.318 340.983 478.914 346.13 477.48 351.599C476.141 356.705 472.394 359.358 467.473 360.552C466.018 360.905 464.531 361.164 463.043 361.327C462.216 361.417 462.093 361.669 462.124 362.471C462.407 369.888 462.553 377.309 461.663 384.701C460.48 394.526 457.853 403.806 451.444 411.664C445.889 418.474 438.649 422.305 430.126 423.977C426.313 424.725 422.5 425.462 418.633 425.854C417.569 425.962 417.516 426.306 417.822 427.244C422.838 442.618 426.506 458.324 429.331 474.235C430.937 483.276 432.299 492.352 433.323 501.477C433.537 503.374 432.863 504.642 431.6 504.873C429.457 505.265 428.406 504.541 427.932 502.339C427.174 501.257 427.285 499.965 427.133 498.757C424.466 477.583 420.504 456.671 414.513 436.168C413.744 433.537 412.883 430.935 412.028 428.331C411.709 427.361 411.208 427.008 410.169 427.17C408.864 427.373 407.529 427.392 406.21 427.47C404.985 427.543 404.571 428.115 404.527 429.19C404.468 430.61 404.196 432.001 403.937 433.39C403.213 437.272 402.131 441.041 400.333 444.583C399.62 445.989 398.664 447.182 397.483 448.206C395.362 450.044 392.653 450.306 390.208 448.914C388.518 447.952 387.196 446.621 386.183 444.861C386.184 450.62 386.184 456.318 386.184 462.015C386.183 467.365 386.184 472.714 386.183 478.063C386.183 478.771 386.183 479.477 385.974 480.166C385.533 481.623 384.388 482.506 382.957 482.482C381.446 482.457 380.321 481.512 379.966 479.96C379.817 479.307 379.857 478.64 379.857 477.978C379.855 468.075 379.856 458.172 379.854 448.269C379.854 447.842 379.901 447.408 379.798 446.949C379.311 447.15 379.088 447.552 378.783 447.853C375.802 450.787 371.75 450.899 368.672 448.062C366.554 446.109 365.163 443.645 364.003 441.044C362.253 437.118 360.954 433.034 359.772 428.909C359.197 426.903 359.103 426.819 357.055 426.739C356.125 426.703 355.212 426.529 354.287 426.447C353.233 426.354 352.646 426.763 352.257 427.717C351.19 430.338 350.126 432.959 349.203 435.635C346.271 444.134 344.115 452.842 342.195 461.613C339.545 473.712 337.587 485.931 335.833 498.187C335.629 499.606 335.826 501.121 334.952 502.403Z" fill="#6E4100"/>
<path d="M334.952 502.403C336.518 489.573 338.59 476.824 341.253 464.177C343.817 451.996 346.759 439.915 351.572 428.378C352.63 425.844 352.62 425.838 355.338 426.131C355.688 426.169 356.033 426.256 356.384 426.296C359.53 426.655 359.485 426.667 360.379 429.656C361.859 434.603 363.377 439.541 365.999 444.043C366.78 445.385 367.694 446.628 368.83 447.697C371.809 450.498 375.638 450.461 378.523 447.585C379.052 447.056 379.529 446.476 380.09 445.854C380.395 446.285 380.259 446.767 380.259 447.203C380.269 457.854 380.27 468.506 380.261 479.158C380.26 480.423 380.691 481.432 381.888 481.939C383 482.409 384.078 482.225 384.945 481.361C385.724 480.584 385.777 479.555 385.776 478.52C385.771 467.559 385.773 456.598 385.773 445.636C385.773 445.152 385.773 444.667 385.773 443.884C386.312 444.578 386.692 445.072 387.078 445.562C387.352 445.908 387.621 446.26 387.916 446.588C391.593 450.664 396.191 450.357 399.184 445.76C401.663 441.952 402.736 437.618 403.561 433.222C403.886 431.49 404.088 429.733 404.289 427.981C404.357 427.39 404.547 427.151 405.166 427.114C407.102 426.998 409.041 426.871 410.966 426.642C411.936 426.526 412.051 427.145 412.261 427.773C414.831 435.476 417.024 443.287 418.943 451.175C422.344 465.154 424.888 479.295 426.865 493.541C427.271 496.466 427.578 499.405 427.932 502.339C397.555 502.339 367.178 502.339 336.802 502.342C336.185 502.342 335.568 502.381 334.952 502.403Z" fill="#2CB2BD"/>
<path d="M303.789 342.476C303.986 329.229 304.472 315.995 306.008 302.827C307.448 290.482 309.734 278.319 314.714 266.825C317.89 259.494 322.086 252.867 328.253 247.637C334.184 242.607 341.075 239.767 348.742 238.83C355.497 238.005 362.295 237.826 369.095 237.7C381.381 237.472 393.628 238.117 405.869 239.097C414.444 239.784 422.448 241.996 429.367 247.341C435.704 252.237 440.096 258.617 443.416 265.81C447.462 274.574 449.741 283.849 451.317 293.319C453.322 305.361 454.079 317.519 454.634 329.694C454.853 334.499 455.059 339.303 455.27 344.108C454.596 344.018 454.565 343.388 454.349 342.95C453.349 340.922 452.338 338.896 450.55 337.427C446.286 333.927 441.135 333.571 436.425 336.661C432.525 339.22 430.265 342.978 429.706 347.598C429.175 351.988 431.652 356.254 435.61 358.302C438.72 359.911 442.025 360.693 445.476 360.047C449.939 359.21 452.574 356.034 454.645 352.276C454.925 351.767 454.965 351.027 455.8 351.029C456.382 358.645 456.881 366.268 456.749 373.912C456.599 382.645 455.746 391.274 452.308 399.431C449.294 406.583 444.584 412.289 437.541 415.764C433.315 417.85 428.674 418.682 424.059 419.457C413.937 421.156 403.722 421.743 393.474 421.987C381.366 422.275 369.282 421.84 357.228 420.73C347.732 419.856 338.355 418.302 329.045 416.125C316.415 413.171 309.349 405.026 305.964 393.013C304.119 386.468 303.445 379.766 303.178 373.003C302.945 367.085 303.138 361.173 303.356 355.26C303.581 354.402 303.316 353.507 303.524 352.59C304.207 352.673 304.372 353.218 304.594 353.66C307.206 358.876 311.825 360.961 317.255 361.228C324.466 361.584 330.551 356.21 331.53 349.028C331.794 347.092 331.313 345.232 330.598 343.463C329.146 339.872 327.208 336.636 323.533 334.866C318.818 332.596 314.354 333.241 310.137 336.143C307.702 337.819 306.069 340.158 304.844 342.811C304.618 343.302 304.509 343.895 303.847 344.22C303.629 343.578 303.678 343.029 303.789 342.476Z" fill="#FEF2DF"/>
<path d="M303.789 342.476C303.827 342.914 303.865 343.352 303.921 343.999C304.877 341.873 305.858 339.97 307.264 338.297C312.25 332.371 321.328 331.107 326.998 336.957C329.796 339.845 331.534 343.381 331.904 347.404C332.224 350.877 330.79 353.872 328.514 356.415C327.228 357.851 325.924 359.299 324.168 360.244C320.627 362.15 316.986 361.921 313.267 360.93C308.821 359.745 305.595 357.139 303.766 352.724C303.365 353.651 303.846 354.532 303.356 355.26C303.501 350.999 303.645 346.737 303.789 342.476Z" fill="#F5CEB1"/>
<path d="M455.8 351.029C454.74 352.213 454.325 353.773 453.364 355.045C448.758 361.147 443.211 361.909 436.486 359.085C431.611 357.039 429.132 353.189 429.336 347.846C429.447 344.953 430.635 342.338 432.328 340.056C434.281 337.423 436.815 335.428 440.074 334.598C445.493 333.219 450.982 335.745 453.645 340.798C454.218 341.885 454.73 343.004 455.27 344.108C455.447 346.415 455.623 348.722 455.8 351.029Z" fill="#F5CEB1"/>
<path d="M456.647 291.07C455.548 285.447 454.393 279.838 452.655 274.369C452.301 273.255 451.937 272.144 451.538 270.913C453.154 271.043 454.469 271.619 455.72 272.353C458.582 274.033 460.871 276.359 462.914 278.928C467.77 285.034 471.225 291.887 473.625 299.29C473.108 299.558 473.096 299.578 472.643 299.297C471.594 298.647 470.58 297.946 469.52 297.312C465.766 295.066 461.879 293.109 457.688 291.807C457.258 291.673 456.852 291.515 456.647 291.07Z" fill="#FEFEFE"/>
<path d="M286.332 299.56C289.533 289.836 294.059 280.915 301.9 274.027C303.333 272.769 304.96 271.797 307.026 271.157C304.712 277.911 303.205 284.717 301.938 291.581C301.677 291.972 301.272 292.134 300.851 292.282C296.293 293.882 292.089 296.166 288.092 298.858C287.569 299.211 287.097 299.778 286.332 299.56Z" fill="#FEFEFE"/>
<path d="M475.981 309.385C476.808 313.645 476.748 317.885 475.695 322.103C474.945 322.902 474.82 321.947 474.618 321.645C473.642 320.183 472.763 318.662 471.659 317.282C468.532 313.374 464.555 310.5 460.367 307.872C459.811 307.523 459.194 307.254 458.795 306.695C458.409 303.621 458.022 300.547 457.636 297.473C458.031 296.688 458.59 297.191 459.014 297.365C462.986 298.994 466.792 300.94 470.24 303.524C472.003 304.845 473.783 306.149 475.182 307.889C475.551 308.348 475.795 308.844 475.981 309.385Z" fill="#FEFEFE"/>
<path d="M284.519 322.604C283.15 318.25 283.24 313.837 283.995 309.399C284.629 307.588 286.137 306.475 287.487 305.316C291.132 302.183 295.299 299.853 299.662 297.867C300.053 297.689 300.466 297.47 300.924 297.701C300.556 300.965 300.187 304.229 299.818 307.493C299.521 307.955 299.061 308.212 298.614 308.503C294.412 311.238 290.492 314.295 287.475 318.369C286.711 319.402 286.098 320.527 285.448 321.631C285.221 322.017 285.167 322.606 284.519 322.604Z" fill="#FEFEFE"/>
<path d="M460.588 341.288C460.588 340.1 460.601 338.911 460.582 337.723C460.574 337.262 460.618 336.964 461.213 337.03C464.361 337.377 467.406 338.002 469.9 340.153C472.704 342.571 472.997 345.744 472.483 349.105C472.005 352.225 470.081 354.092 467.119 354.994C465.681 355.432 464.206 355.653 462.73 355.91C461.842 356.065 461.706 355.788 461.658 355.007C461.377 350.433 461.048 345.862 460.735 341.29C460.686 341.289 460.637 341.289 460.588 341.288Z" fill="#FEF8EA"/>
<path d="M368.108 427.148C371.843 427.512 375.599 427.336 379.338 427.593C380.009 427.639 380.313 427.782 380.192 428.514C379.469 432.877 378.481 437.161 376.449 441.132C376.089 441.835 375.674 442.525 375.192 443.148C374.045 444.631 373.268 444.645 372.063 443.184C370.298 441.045 369.229 438.521 368.226 435.974C367.192 433.349 366.355 430.656 365.574 427.945C365.369 427.234 365.283 426.841 366.261 427.048C366.857 427.175 367.491 427.12 368.108 427.148Z" fill="#2CB2BD"/>
<path d="M297.773 346.412C297.773 349.232 297.747 352.052 297.788 354.872C297.801 355.779 297.471 356.011 296.634 355.812C295.864 355.629 295.067 355.558 294.299 355.372C288.588 353.992 286.19 349.973 287.599 344.25C288.226 341.705 289.842 340.012 292.069 338.814C293.637 337.97 295.348 337.565 297.086 337.226C298.113 337.026 298.317 337.364 298.29 338.348C298.217 341.034 298.265 343.724 298.265 346.412C298.101 346.412 297.937 346.412 297.773 346.412Z" fill="#FEF8EA"/>
<path d="M390.873 427.434C393.206 427.434 395.54 427.465 397.872 427.415C398.658 427.399 398.888 427.656 398.788 428.401C398.2 432.777 397.436 437.113 395.538 441.146C393.916 444.592 392.981 444.659 390.859 441.482C388.225 437.539 386.637 433.182 385.906 428.5C385.8 427.823 386.003 427.636 386.639 427.648C388.05 427.672 389.462 427.655 390.874 427.655C390.874 427.581 390.874 427.507 390.873 427.434Z" fill="#2CB2BD"/>
<path d="M472.299 328.22C469.635 330.861 466.375 331.922 462.697 331.689C460.372 331.543 460.337 331.466 460.193 329.074C459.878 323.842 459.607 318.608 459.319 313.375C459.866 313.16 460.25 313.519 460.633 313.785C464.233 316.286 467.455 319.159 469.793 322.937C470.829 324.612 471.339 326.52 472.299 328.22Z" fill="#FEFEFE"/>
<path d="M472.299 328.22C471.533 327.461 471.092 326.534 470.698 325.531C469.396 322.211 467.137 319.557 464.508 317.228C462.896 315.8 461.241 314.4 459.319 313.376C459.089 311.153 458.806 308.935 458.795 306.695C461.798 308.106 464.418 310.096 466.981 312.162C470.303 314.841 473.033 318.023 475.03 321.811C475.18 322.096 475.306 322.385 475.694 322.103C475.032 324.403 474.083 326.544 472.299 328.22Z" fill="#BEBEBE"/>
<path d="M299.299 314.425C299.038 319.87 298.77 325.315 298.529 330.761C298.501 331.393 298.344 331.657 297.64 331.701C293.808 331.941 290.442 330.929 287.675 328.185C289.759 322.715 293.166 318.253 297.907 314.821C298.299 314.537 298.689 314.033 299.299 314.425Z" fill="#FEFEFE"/>
<path d="M475.981 309.385C472.398 304.779 467.558 301.845 462.464 299.261C461.286 298.664 460.064 298.152 458.847 297.637C458.475 297.479 458.091 297.126 457.636 297.473C457.306 295.339 456.976 293.204 456.646 291.069C462.596 292.92 468.076 295.715 473.172 299.281C473.327 299.39 473.471 299.471 473.625 299.29C474.726 302.581 475.665 305.911 475.981 309.385Z" fill="#BEBEBE"/>
<path d="M299.299 314.425C297.12 315.484 295.477 317.221 293.8 318.885C291.517 321.151 289.799 323.809 288.746 326.871C288.55 327.44 288.11 327.811 287.675 328.185C286.075 326.635 285.06 324.753 284.519 322.604C287.793 316.042 293.122 311.512 299.224 307.75C299.406 307.638 299.619 307.578 299.818 307.493C299.645 309.804 299.472 312.114 299.299 314.425Z" fill="#BEBEBE"/>
<path d="M300.924 297.701C295.177 300.202 289.745 303.191 285.37 307.803C284.888 308.312 284.452 308.866 283.995 309.399C284.376 306.025 285.182 302.751 286.332 299.56C289.458 297.575 292.537 295.515 295.917 293.961C297.883 293.057 299.866 292.211 301.938 291.581C301.6 293.621 301.262 295.661 300.924 297.701Z" fill="#BEBEBE"/>
<path d="M347.802 296.125C343.383 296.069 339.412 295.282 335.996 292.653C331.785 289.412 331.477 284.749 335.299 281.071C338.281 278.201 342.006 276.882 346.025 276.375C351.728 275.654 357.304 276.044 362.552 278.676C363.623 279.213 364.606 279.885 365.473 280.716C368.736 283.845 368.545 288.506 365.058 291.378C363.462 292.693 361.62 293.53 359.681 294.15C355.747 295.408 351.696 295.991 347.802 296.125Z" fill="#6E4100"/>
<path d="M409.046 276.063C414.052 276.088 418.447 276.806 422.41 279.274C423.39 279.884 424.285 280.596 425.084 281.431C428.261 284.753 428.143 288.944 424.722 292.047C422.035 294.483 418.775 295.654 415.219 295.939C409.042 296.434 403.084 295.473 397.402 292.95C396.552 292.573 395.778 292.059 395.059 291.467C391.262 288.341 391.214 283.396 395.022 280.289C398.215 277.686 402.045 276.692 406.043 276.236C407.181 276.106 408.334 276.102 409.046 276.063Z" fill="#6E4100"/>
<path d="M331.406 401.502C331.675 389.737 333.13 378.157 337.033 366.994C339.891 358.82 344.001 351.371 350.31 345.301C351.449 344.205 352.712 343.228 353.977 342.276C355.179 341.371 356.544 341.496 357.273 342.46C358.099 343.554 357.844 344.691 356.509 345.717C349.617 351.013 345.136 358.025 342.03 366.02C339.289 373.076 337.629 380.386 336.688 387.891C335.997 393.409 335.564 398.93 335.658 404.49C335.674 405.395 335.557 406.263 334.829 406.906C334.188 407.472 333.47 407.731 332.639 407.325C331.874 406.95 331.369 406.423 331.396 405.481C331.435 404.156 331.406 402.828 331.406 401.502Z" fill="#F5CEA8"/>
<path d="M428.766 403.425C428.766 404.178 428.803 404.756 428.759 405.327C428.672 406.453 427.618 407.506 426.63 407.503C425.382 407.501 424.579 406.652 424.518 405.275C424.343 401.36 424.325 397.43 423.964 393.533C422.859 381.579 420.627 369.896 414.808 359.198C412.046 354.118 408.581 349.587 403.884 346.1C403.637 345.916 403.417 345.694 403.197 345.478C402.077 344.381 401.956 343.344 402.827 342.35C403.579 341.492 404.974 341.44 406.066 342.256C408.3 343.924 410.354 345.804 412.203 347.883C415.356 351.429 417.913 355.397 419.951 359.672C423.269 366.632 425.41 373.963 426.693 381.564C427.741 387.777 428.49 394.007 428.56 400.316C428.571 401.406 428.846 402.497 428.766 403.425Z" fill="#F5CEA8"/>
<path d="M381.919 402.441C375.635 402.068 369.862 399.002 366.057 392.563C365.489 391.604 365.436 390.638 366.087 389.703C366.676 388.857 367.531 388.553 368.523 388.721C369.471 388.881 369.976 389.562 370.47 390.352C373.328 394.922 377.479 397.358 382.872 397.47C387.854 397.574 391.329 395.147 393.49 390.729C393.625 390.452 393.731 390.161 393.86 389.881C394.547 388.388 395.843 387.786 397.17 388.339C398.507 388.896 398.988 390.22 398.419 391.781C396.065 398.246 389.98 402.449 381.919 402.441Z" fill="#6E4100"/>
<path d="M396.165 250.497C396.652 250.497 397.141 250.464 397.624 250.503C398.902 250.607 399.653 251.508 399.607 252.84C399.563 254.108 398.943 254.69 397.571 254.745C393.169 254.922 388.761 255.015 384.366 255.295C379.014 255.636 373.672 256.15 368.324 256.558C366.436 256.703 364.542 256.798 362.649 256.837C361.197 256.866 360.326 256 360.341 254.697C360.355 253.443 361.188 252.691 362.571 252.593C368.317 252.186 374.063 251.769 379.808 251.345C383.756 251.054 387.711 250.688 391.684 250.722C393.177 250.735 394.671 250.56 396.164 250.47C396.165 250.479 396.165 250.488 396.165 250.497Z" fill="#F5CEA8"/>
<path d="M381.252 264.801C385.064 264.755 388.549 264.783 391.998 265.32C393.471 265.549 394.156 266.491 393.931 267.647C393.66 269.031 392.56 269.604 391.067 269.469C388.481 269.235 385.89 269.049 383.284 269.034C378.474 269.004 373.684 269.088 368.948 270.081C367.45 270.395 366.364 269.725 366.172 268.549C365.919 266.992 366.572 266.188 368.307 265.852C372.693 265.003 377.117 264.655 381.252 264.801Z" fill="#F5CEA8"/>
<path d="M396.276 307.355C396.305 304.324 398.171 302.065 401.147 301.457C403.068 301.064 404.766 301.742 405.826 303.415C407.051 305.348 407.317 307.441 406.589 309.616C405.733 312.173 403.452 313.346 400.415 312.847C397.9 312.433 396.249 310.243 396.276 307.355Z" fill="#6E4100"/>
<path d="M363.744 307.354C363.753 310.839 361.686 312.974 358.313 312.963C355.195 312.953 353.028 310.678 353.038 307.427C353.048 304.03 355.603 301.394 358.905 301.373C361.69 301.356 363.735 303.884 363.744 307.354Z" fill="#6E4100"/>
<path d="M382.907 350.093C379.021 350.038 375.092 346.043 375.06 342.198C375.05 341.09 375.822 340.114 376.927 339.96C378.051 339.802 378.944 340.236 379.381 341.313C379.727 342.165 379.882 343.093 380.361 343.897C381.553 345.892 383.327 345.969 384.642 344.077C385.151 343.346 385.404 342.503 385.708 341.675C386.123 340.542 387.006 340.015 388.208 340.189C389.326 340.35 390.05 341.284 390.049 342.433C390.047 345.401 386.784 349.381 383.872 349.959C383.526 350.027 383.173 350.057 382.907 350.093Z" fill="#6E4100"/>
<path d="M372.702 283.111C370.767 283.133 369.934 282.477 369.873 281.18C369.803 279.736 370.539 279.051 372.117 278.848C375.515 278.412 378.902 277.882 382.298 277.43C384.213 277.175 386.135 276.959 388.059 276.807C389.065 276.727 390.183 277.777 390.286 278.735C390.407 279.852 389.644 280.835 388.396 281.01C384.482 281.559 380.562 282.065 376.644 282.587C375.207 282.779 373.77 282.969 372.702 283.111Z" fill="#F5CEA8"/>
<path d="M347.736 291.461C344.606 291.416 341.577 291.004 338.973 289.05C336.79 287.411 336.739 285.901 338.849 284.129C341.421 281.969 344.517 281.137 347.763 280.834C351.486 280.486 355.169 280.734 358.713 282.066C359.997 282.548 361.241 283.114 362.23 284.107C363.493 285.376 363.424 286.685 362.026 287.827C360.88 288.762 359.531 289.31 358.142 289.747C354.757 290.813 351.277 291.332 347.736 291.461Z" fill="#FEFEFE"/>
<path d="M412.352 291.475C408.19 291.259 404.225 290.728 400.456 289.213C399.687 288.904 398.929 288.509 398.253 288.031C396.436 286.743 396.418 285.074 398.198 283.708C399.726 282.535 401.501 281.865 403.361 281.434C408.145 280.324 412.888 280.366 417.553 282.045C419.105 282.604 420.513 283.425 421.668 284.614C423.113 286.101 423.063 287.311 421.503 288.669C419.602 290.323 417.305 291.034 414.855 291.321C413.981 291.423 413.096 291.431 412.352 291.475Z" fill="#FEFEFE"/>
</g>
<defs>
<clipPath id="clip0">
<rect width="198.409" height="280" fill="white" transform="translate(105)"/>
</clipPath>
<clipPath id="clip1">
<rect width="212.581" height="300" fill="white" transform="translate(0 309)"/>
</clipPath>
<clipPath id="clip2">
<rect width="204.02" height="273" fill="white" transform="translate(278 232)"/>
</clipPath>
</defs>
</svg>
